<svg width="146" height="48" viewBox="0 0 146 48" fill="none" xmlns="http://www.w3.org/2000/svg">
<path d="M18.8931 13.3652L22.0807 8L38.8859 37.3294C41.6084 42.0809 38.178 48 32.7019 48L18.786 23.3962C17.0207 20.2751 17.0616 16.4479 18.8931 13.3652Z" fill="black"/>
<path d="M0 46.8811L2.50116 42.966C4.33846 40.0901 7.51555 38.3496 10.9283 38.3496H25.7143L23.8223 41.7468C22.057 44.9163 18.7137 46.8811 15.0858 46.8811H0Z" fill="black"/>
<path d="M57.675 3.25H61.175L67.7 21H64.15L62.5 16.575H56.3L54.675 21H51.125L57.675 3.25ZM61.875 14.15L59.425 6.825L56.875 14.15H61.875ZM73.9516 21.25C72.8349 21.25 71.7682 21.0667 70.7516 20.7C69.7349 20.3333 68.8599 19.7917 68.1266 19.075L69.3266 16.9C70.1099 17.5333 70.8766 18 71.6266 18.3C72.3932 18.6 73.1266 18.75 73.8266 18.75C74.4766 18.75 74.9932 18.6333 75.3766 18.4C75.7766 18.1667 75.9766 17.8167 75.9766 17.35C75.9766 17.0333 75.8682 16.7917 75.6516 16.625C75.4349 16.4417 75.1182 16.2833 74.7016 16.15C74.3016 16.0167 73.8099 15.8667 73.2266 15.7C72.2599 15.3833 71.4516 15.075 70.8016 14.775C70.1516 14.475 69.6599 14.1 69.3266 13.65C69.0099 13.1833 68.8516 12.5917 68.8516 11.875C68.8516 11.0083 69.0682 10.2667 69.5016 9.65C69.9516 9.01667 70.5682 8.525 71.3516 8.175C72.1516 7.825 73.0849 7.65 74.1516 7.65C75.0849 7.65 75.9682 7.8 76.8016 8.1C77.6349 8.38333 78.3932 8.85 79.0766 9.5L77.7266 11.625C77.0599 11.1083 76.4266 10.7333 75.8266 10.5C75.2266 10.25 74.6182 10.125 74.0016 10.125C73.6516 10.125 73.3182 10.1667 73.0016 10.25C72.7016 10.3333 72.4516 10.475 72.2516 10.675C72.0682 10.8583 71.9766 11.125 71.9766 11.475C71.9766 11.7917 72.0599 12.0417 72.2266 12.225C72.4099 12.3917 72.6766 12.5417 73.0266 12.675C73.3932 12.8083 73.8349 12.9583 74.3516 13.125C75.4016 13.425 76.2849 13.7333 77.0016 14.05C77.7349 14.3667 78.2849 14.7583 78.6516 15.225C79.0182 15.675 79.2016 16.3 79.2016 17.1C79.2016 18.4 78.7266 19.4167 77.7766 20.15C76.8266 20.8833 75.5516 21.25 73.9516 21.25ZM87.5801 21.25C86.5134 21.25 85.5551 21.075 84.7051 20.725C83.8551 20.3583 83.1301 19.8583 82.5301 19.225C81.9301 18.575 81.4634 17.8417 81.1301 17.025C80.8134 16.2083 80.6551 15.35 80.6551 14.45C80.6551 13.2167 80.9301 12.0917 81.4801 11.075C82.0467 10.0417 82.8467 9.21667 83.8801 8.6C84.9134 7.98333 86.1384 7.675 87.5551 7.675C88.9717 7.675 90.1884 7.98333 91.2051 8.6C92.2217 9.21667 92.9801 10.025 93.4801 11.025L90.2051 12.025C89.9217 11.5417 89.5467 11.175 89.0801 10.925C88.6134 10.6583 88.0967 10.525 87.5301 10.525C86.8967 10.525 86.3134 10.6917 85.7801 11.025C85.2634 11.3417 84.8551 11.8 84.5551 12.4C84.2551 12.9833 84.1051 13.6667 84.1051 14.45C84.1051 15.2167 84.2551 15.9 84.5551 16.5C84.8717 17.0833 85.2884 17.55 85.8051 17.9C86.3217 18.2333 86.8967 18.4 87.5301 18.4C87.9301 18.4 88.3051 18.3333 88.6551 18.2C89.0217 18.0667 89.3467 17.8833 89.6301 17.65C89.9134 17.4167 90.1217 17.15 90.2551 16.85L93.5301 17.85C93.2301 18.5 92.7884 19.0833 92.2051 19.6C91.6384 20.1167 90.9634 20.525 90.1801 20.825C89.4134 21.1083 88.5467 21.25 87.5801 21.25ZM101.544 21.25C100.494 21.25 99.5443 21.075 98.6943 20.725C97.8443 20.3583 97.1193 19.8667 96.5193 19.25C95.9193 18.6167 95.4527 17.9 95.1193 17.1C94.8027 16.2833 94.6443 15.425 94.6443 14.525C94.6443 13.275 94.9193 12.1333 95.4693 11.1C96.036 10.0667 96.836 9.24167 97.8693 8.625C98.9193 7.99167 100.153 7.675 101.569 7.675C103.003 7.675 104.228 7.99167 105.244 8.625C106.261 9.24167 107.036 10.0667 107.569 11.1C108.119 12.1167 108.394 13.2167 108.394 14.4C108.394 14.6 108.386 14.8083 108.369 15.025C108.353 15.225 108.336 15.3917 108.319 15.525H98.1943C98.261 16.1917 98.4527 16.775 98.7693 17.275C99.1027 17.775 99.5193 18.1583 100.019 18.425C100.536 18.675 101.086 18.8 101.669 18.8C102.336 18.8 102.961 18.6417 103.544 18.325C104.144 17.9917 104.553 17.5583 104.769 17.025L107.644 17.825C107.328 18.4917 106.869 19.0833 106.269 19.6C105.686 20.1167 104.994 20.525 104.194 20.825C103.394 21.1083 102.511 21.25 101.544 21.25ZM98.1193 13.4H104.969C104.903 12.7333 104.711 12.1583 104.394 11.675C104.094 11.175 103.694 10.7917 103.194 10.525C102.694 10.2417 102.136 10.1 101.519 10.1C100.919 10.1 100.369 10.2417 99.8693 10.525C99.386 10.7917 98.986 11.175 98.6693 11.675C98.3693 12.1583 98.186 12.7333 98.1193 13.4ZM122.61 21H119.26V13.65C119.26 12.6 119.077 11.8333 118.71 11.35C118.343 10.8667 117.835 10.625 117.185 10.625C116.735 10.625 116.277 10.7417 115.81 10.975C115.36 11.2083 114.952 11.5333 114.585 11.95C114.218 12.35 113.952 12.8167 113.785 13.35V21H110.435V7.9H113.46V10.325C113.793 9.75833 114.218 9.28333 114.735 8.9C115.252 8.5 115.843 8.2 116.51 8C117.193 7.78333 117.91 7.675 118.66 7.675C119.477 7.675 120.143 7.825 120.66 8.125C121.193 8.40833 121.593 8.8 121.86 9.3C122.143 9.78333 122.335 10.3333 122.435 10.95C122.552 11.5667 122.61 12.1917 122.61 12.825V21ZM133.3 20.325C133.016 20.4417 132.675 20.575 132.275 20.725C131.875 20.875 131.441 20.9917 130.975 21.075C130.525 21.175 130.066 21.225 129.6 21.225C128.983 21.225 128.416 21.1167 127.9 20.9C127.383 20.6833 126.966 20.3417 126.65 19.875C126.35 19.3917 126.2 18.7667 126.2 18V10.475H124.475V7.9H126.2V3.65H129.55V7.9H132.3V10.475H129.55V16.875C129.566 17.325 129.691 17.65 129.925 17.85C130.158 18.05 130.45 18.15 130.8 18.15C131.15 18.15 131.491 18.0917 131.825 17.975C132.158 17.8583 132.425 17.7583 132.625 17.675L133.3 20.325ZM52.85 46V28.25H59.3C61.2333 28.25 62.85 28.65 64.15 29.45C65.45 30.2333 66.425 31.3 67.075 32.65C67.725 33.9833 68.05 35.4667 68.05 37.1C68.05 38.9 67.6917 40.4667 66.975 41.8C66.2583 43.1333 65.2417 44.1667 63.925 44.9C62.625 45.6333 61.0833 46 59.3 46H52.85ZM64.575 37.1C64.575 35.95 64.3667 34.9417 63.95 34.075C63.5333 33.1917 62.9333 32.5083 62.15 32.025C61.3667 31.525 60.4167 31.275 59.3 31.275H56.3V42.975H59.3C60.4333 42.975 61.3917 42.725 62.175 42.225C62.9583 41.7083 63.55 41.0083 63.95 40.125C64.3667 39.225 64.575 38.2167 64.575 37.1ZM76.4955 46.25C75.4455 46.25 74.4955 46.075 73.6455 45.725C72.7955 45.3583 72.0705 44.8667 71.4705 44.25C70.8705 43.6167 70.4038 42.9 70.0705 42.1C69.7538 41.2833 69.5955 40.425 69.5955 39.525C69.5955 38.275 69.8705 37.1333 70.4205 36.1C70.9872 35.0667 71.7872 34.2417 72.8205 33.625C73.8705 32.9917 75.1038 32.675 76.5205 32.675C77.9538 32.675 79.1788 32.9917 80.1955 33.625C81.2122 34.2417 81.9872 35.0667 82.5205 36.1C83.0705 37.1167 83.3455 38.2167 83.3455 39.4C83.3455 39.6 83.3372 39.8083 83.3205 40.025C83.3038 40.225 83.2872 40.3917 83.2705 40.525H73.1455C73.2122 41.1917 73.4038 41.775 73.7205 42.275C74.0538 42.775 74.4705 43.1583 74.9705 43.425C75.4872 43.675 76.0372 43.8 76.6205 43.8C77.2872 43.8 77.9122 43.6417 78.4955 43.325C79.0955 42.9917 79.5038 42.5583 79.7205 42.025L82.5955 42.825C82.2788 43.4917 81.8205 44.0833 81.2205 44.6C80.6372 45.1167 79.9455 45.525 79.1455 45.825C78.3455 46.1083 77.4622 46.25 76.4955 46.25ZM73.0705 38.4H79.9205C79.8538 37.7333 79.6622 37.1583 79.3455 36.675C79.0455 36.175 78.6455 35.7917 78.1455 35.525C77.6455 35.2417 77.0872 35.1 76.4705 35.1C75.8705 35.1 75.3205 35.2417 74.8205 35.525C74.3372 35.7917 73.9372 36.175 73.6205 36.675C73.3205 37.1583 73.1372 37.7333 73.0705 38.4ZM88.5451 46L83.7201 32.9H87.1951L90.4951 42.95L93.8201 32.9H96.9951L92.1951 46H88.5451ZM97.0545 46V42.4H99.8045V46H97.0545Z" fill="black"/>
</svg>
